<svg width="570" height="166" fill="none" xmlns="http://www.w3.org/2000/svg"
    xmlns:xlink="http://www.w3.org/1999/xlink">
    <path
        d="M124.77 0.00756805C111.089 1.00757 110.582 4.50757 109.062 8.00757C107.542 11.5076 115.649 32.0076 100.955 40.5076C86.2604 49.0076 72.5794 40.5076 72.5794 40.5076C72.5794 40.5076 51.1702 57.2777 30.5229 55.5076C10.7877 53.8156 -8.20758 33.594 -9 33.0076V166H709V44.0076C709 44.0076 696.332 49.5087 681.638 47.5087C666.944 45.5087 658.33 34.5076 658.33 34.5076C658.33 34.5076 652.756 34.0087 647.182 33.0087C641.608 32.0087 636.541 25.5087 633.501 27.5076C630.461 29.5065 633.501 33.5087 627.927 35.5087C622.354 37.5087 621.847 32.5087 618.807 34.5076C615.766 36.5065 617.793 43.0098 606.139 45.0087C594.485 47.0076 592.458 42.5087 592.458 42.5087C592.458 42.5087 587.391 36.5087 581.311 38.0076C575.23 39.5065 577.257 44.0087 568.643 44.0076C560.029 44.0065 565.096 36.0087 554.962 39.2576C544.828 42.5065 547.868 31.5087 541.281 34.5076C534.694 37.5065 528.107 47.0087 519.999 48.5087C511.892 50.0087 495.171 48.0087 495.171 48.0087C488.584 46.5087 489.597 39.5 482.503 40.5076C475.409 41.5151 480.476 52.0087 467.302 54.5076C454.128 57.0065 455.141 49.0087 450.581 50.5076C446.02 52.0065 443.487 49.0087 441.46 50.5076C439.433 52.0065 440.447 54.0087 434.873 58.0087C429.299 62.0087 426.259 62.5087 419.165 62.5076C412.071 62.5065 404.977 58.5087 401.431 54.5076C397.884 50.5065 402.444 41 397.884 40.5076C393.323 40.0151 394.843 45.0087 384.203 48.5087C373.562 52.0087 369.001 50.5076 369.001 50.5076C369.001 50.5076 362.921 48.0087 358.614 47.2576C354.307 46.5065 357.347 42.0087 348.227 44.0076C339.106 46.0065 345.186 49.0087 340.626 52.5087C336.066 56.0087 327.452 59.0087 321.371 57.5076C315.291 56.0065 314.531 49.0076 314.531 49.0076C314.531 49.0076 312.757 39.5 307.69 40.5076C302.623 41.5151 305.663 56.0087 286.915 50.0087C268.167 44.0087 282.355 27.0087 278.301 28.5076C274.248 30.0065 264.114 25.5 260.567 26.0076C257.02 26.5151 255.5 33.5087 245.872 30.0087C236.245 26.5087 242.325 19.5 239.285 16.0076C236.245 12.5151 228.138 17.0087 221.55 14.0087C214.963 11.0087 219.017 1.5 212.43 2.00757C205.843 2.51514 202.802 17.5087 182.028 21.0087C161.253 24.5087 149.092 11.5076 149.092 11.5076C149.092 11.5076 139.132 17.4329 132.371 14.0087C128.601 12.0996 129.667 -0.350387 124.77 0.00756805Z"
        fill="url(#imagePattern)" />
    <defs>
        <!-- <pattern id="img1" patternUnits="userSpaceOnUse" width="100" height="100">
            <image href="/bgfill.png" x="0" y="0" width="100" height="100" />
        </pattern> -->
        <pattern id="imagePattern" x="0" y="0" width="570" height="166" patternUnits="userSpaceOnUse">
            <image href="/bgfill.png" x="0" y="0" width="570" height="166" />
          </pattern>
    </defs>
</svg>